<svg xmlns="http://www.w3.org/2000/svg" viewBox="0 0 512 512"><path d="M228.5 22.2c-31.1 3.5-68.3 16.5-95.5 33.3-22 13.7-47.2 36.1-62.2 55.5-25.6 33.1-41.7 71.2-48 113.5-2 13.6-1.7 51.2.5 65.5C33.6 356.5 70.4 414.5 126 451.6c28.7 19.1 62.3 32 96.6 37.1 16.4 2.4 50.4 2.4 66.8 0 41.1-6.1 81.5-23.7 113.6-49.4 45.9-36.8 76.4-89.7 85.7-148.5 2.5-15.9 2.5-53.7 0-69.6-8.3-52.4-32.9-99.5-70.8-135.6-37-35.2-86.1-58.1-136.1-63.5-11.4-1.3-41.9-1.2-53.3.1zM407 141.9c0 .5-1.8 2.4-3.9 4.3-7.8 6.6-64.1 58.5-67.6 62.2-1.8 1.9-32.2 30.2-56.7 52.7-11.7 10.8-16.7 13.9-22.6 13.9-7.8 0-8.1-.2-49.6-38.4-8.3-7.6-19.1-17.8-24.1-22.5-16.1-15.5-64.7-60.3-73.6-67.9-2.1-1.9-3.9-3.8-3.9-4.3s60.1-.9 151-.9 151 .4 151 .9zm-269 54.3c15.1 13.8 33.1 30.5 40 37l12.4 11.8-3.9 3.9c-2.2 2.1-21.8 20.2-43.5 40.1-21.7 20-43.1 39.8-47.5 44-4.4 4.3-9.9 9.4-12.2 11.5l-4.3 3.7v-97.1c0-99.4 0-99 3.8-103.3 1.4-1.6 2.4-.8 14.6 10.7 7.2 6.8 25.5 23.8 40.6 37.7zm293.2-45.1c1.7 3.2 1.8 10 1.8 100.3v96.8l-6.4-5.8C412 329 336 258.1 329.5 251.8l-7-6.9 9.6-9.2c5.2-5.1 23.9-22.3 41.4-38.2 17.6-16 36.9-33.8 43-39.7 6-5.9 11.5-10.6 12-10.5.6.2 1.8 1.9 2.7 3.8zm-211.7 120c20.1 18.8 23 20.4 37 20.4 14.3 0 17.1-1.5 36.7-19.9 8.7-8.1 16.2-14.6 16.7-14.4.6.1 7.9 6.9 16.3 14.9s28.4 26.6 44.3 41.3c42.7 39.4 56 52 56 53.1 0 .5-1.6 1.8-3.5 2.8-3.3 1.6-12.9 1.7-168 1.5-163.2-.3-164.5-.3-167.7-2.3l-3.2-2 15.7-14.7c8.6-8 31-28.8 49.7-46.1 18.7-17.4 38.3-35.6 43.5-40.6 5.2-4.9 9.7-9 10-9s7.7 6.7 16.5 15z" fill="#fff"/></svg>