<svg xmlns="http://www.w3.org/2000/svg" viewBox="0 0 433 568"><defs><clipPath id="a"><path data-name="Прямоугольник 45" transform="translate(1520 1258)" fill="#fff" stroke="#707070" d="M0 0h433v568H0z"/></clipPath></defs><g data-name="Группа масок 1" transform="translate(-1520 -1258)" clip-path="url(#a)"><g data-name="Слой 2" transform="translate(1587.015 1258)" fill="#01a1e0"><path data-name="Контур 6" d="M133.439 115.523l-7.849 11.774c-1.962 7.2 0 17.661 0 17.661l17.661-9.812c9.812-5.887 23.548-9.812 74.569-17.661 43.172-6.652 52.159-12.049 68.682-5.887l23.548 19.623c-.687 7.653-9.812 7.849-19.623 7.849l-7.852-19.618-64.757 15.7-56.906 41.2"/><path data-name="Контур 7" d="M282.577 139.071h7.849"/><path data-name="Контур 8" d="M133.44 117.485L102.042 91.97s-11.185-1.079-17.661 1.962a21.056 21.056 0 00-9.812 7.849 33.536 33.536 0 00-5.887 17.661c0 3.356 2.688 14.227 7.849 17.661 5.887 3.925 9.812 3.925 15.7 1.962l-1.962 15.7"/><path data-name="Контур 9" d="M105.967 188.128c-5.141.589-15.208 1.374-23.548-1.962-29.435-11.774-70.429-26.825-78.494-51.021-3.925-11.774 17.229-27.963 21.586-31.4 14.188-11.185 31.4-23.548 31.4-23.548l-1.965-13.733c5.887-3.925 11.774-3.925 17.661-3.925l-3.925 23.548-34.773 39.993-4.474 5.141"/><path data-name="Контур 10" d="M166.799 158.695c8.693 2.453 21.959 7.261 29.435 17.661a84.38 84.38 0 0113.736 27.473c2.885 9.439 5.887 21.586 9.812 37.285"/><path data-name="Контур 11" d="M82.419 178.319a146.531 146.531 0 0027.473 25.51c22.214 15.7 33.36 21.586 33.36 21.586 7.378 3.925 12.382 5.887 15.7 11.774 3.925 7.064 2.944 15.012 1.962 21.586-1.747 11.774-5.063 11.774-7.849 23.548-1.3 5.534-4.592 20.369 1.962 35.322a45.643 45.643 0 005.887 9.812"/><path data-name="Контур 12" d="M213.896 237.189l11.774 35.322c.294 4.2 2.08 9.184 1.962 11.774-1.119 23.764-1.962 39.247-1.962 47.1-.216 52.748-14.306 77.827-23.548 92.23-8.418 13.108-21.311 23.784-47.1 45.134-11.166 9.243-27.061 21.213-58.87 45.134l-15.7 11.774"/><path data-name="Контур 13" d="M170.724 400.063a333.741 333.741 0 01-33.36 5.887 273.592 273.592 0 01-56.908 1.962 251.3 251.3 0 01-29.435-3.925"/><path data-name="Контур 14" d="M180.536 398.101a454.728 454.728 0 00-23.548 19.623c-5.887 5.279-10.636 9.812-49.059 51.021a145.216 145.216 0 00-23.548 31.4 124.812 124.812 0 00-3.925 7.849"/><path data-name="Контур 15" d="M168.761 380.44a152.015 152.015 0 00-27.473-5.884c-18.014-2.139-31.81-.471-51.021 1.962a409.831 409.831 0 00-43.172 7.849"/><path data-name="Контур 16" d="M60.833 398.101A76.531 76.531 0 010 423.611"/><path data-name="Контур 17" d="M92.231 506.03a70.055 70.055 0 01-9.812 35.322 69.25 69.25 0 01-17.664 19.624"/><path data-name="Линия 6" d="M86.343 95.9l-3.925 39.247"/><circle data-name="Эллипс 4" cx="23.685" cy="23.685" r="23.685" transform="translate(92.839)"/></g><g data-name="Слой 1" transform="translate(1576.065 1262.827)" fill="none" stroke-miterlimit="10" stroke-width="2.483"><path data-name="Контур 20" d="M133.44 115.523l-7.85 11.774c-1.864 7.2 0 17.661 0 17.661l17.661-9.812c9.812-5.887 23.548-9.812 74.569-17.661 43.172-6.652 52.159-12.049 68.682-5.887l23.548 19.623c-.687 7.653-9.812 7.849-19.623 7.849l-7.849-19.623-64.757 15.7-56.908 41.209" stroke="#000"/><path data-name="Контур 21" d="M282.579 139.071h7.849" stroke="#000"/><path data-name="Контур 22" d="M133.439 117.485l-31.4-25.511s-11.185-1.1-17.661 1.962a21.056 21.056 0 00-9.812 7.849 33.536 33.536 0 00-5.887 17.661c0 3.356 2.688 14.227 7.849 17.661 5.887 3.925 9.812 3.925 15.7 1.962l-1.962 15.7" stroke="#000"/><path data-name="Контур 23" d="M105.964 188.13c-5.141.589-15.208 1.374-23.548-1.962-29.435-11.774-70.429-26.825-78.494-51.021-3.925-11.774 17.229-27.963 21.586-31.4 14.188-11.185 31.4-23.548 31.4-23.548l-1.962-13.736c5.887-3.925 11.774-3.925 17.661-3.925l-3.925 23.548-34.773 39.993-4.474 5.141" stroke="#000"/><path data-name="Линия 7" stroke="#000" d="M33.36 125.335l39.247 7.849"/><path data-name="Контур 24" d="M166.8 158.695c8.693 2.453 21.959 7.261 29.435 17.661a84.382 84.382 0 0113.736 27.473c2.885 9.439 5.887 21.586 9.812 37.285" stroke="#000"/><path data-name="Контур 25" d="M82.418 178.318a146.532 146.532 0 0027.473 25.51c22.214 15.7 33.36 21.586 33.36 21.586 7.378 3.925 12.382 5.887 15.7 11.774 3.925 7.064 2.943 15.012 1.962 21.586-1.746 11.774-5.063 11.774-7.849 23.548-1.3 5.534-4.592 20.369 1.962 35.322a46.153 46.153 0 005.887 9.812" stroke="#000"/><path data-name="Контур 26" d="M213.895 237.189l11.774 35.326c.294 4.2 2.08 9.184 1.962 11.774-1.119 23.764-1.962 39.247-1.962 47.1-.216 52.748-14.306 77.827-23.548 92.23-8.418 13.108-21.311 23.784-47.1 45.134-11.166 9.243-27.061 21.213-58.87 45.134-6.633 5-12.108 9.086-15.7 11.774" stroke="#000"/><path data-name="Контур 27" d="M170.724 400.063a333.742 333.742 0 01-33.36 5.887 273.588 273.588 0 01-56.908 1.962 251.311 251.311 0 01-29.435-3.925" stroke="#000"/><path data-name="Контур 28" d="M166.799 319.607a501.281 501.281 0 001.962 60.833 496.573 496.573 0 003.925 31.4" stroke="#000"/><path data-name="Контур 29" d="M180.535 398.101a454.728 454.728 0 00-23.548 19.623c-5.887 5.279-10.636 9.812-49.059 51.021a145.216 145.216 0 00-23.548 31.4 124.812 124.812 0 00-3.925 7.849" stroke="#000"/><path data-name="Контур 30" d="M168.762 380.44a152.013 152.013 0 00-27.473-5.887c-18.014-2.139-31.81-.471-51.021 1.962a409.851 409.851 0 00-43.172 7.849" stroke="#000"/><path data-name="Контур 31" d="M60.832 398.101A76.531 76.531 0 010 423.611" stroke="#000"/><path data-name="Контур 32" d="M92.23 506.03a70.056 70.056 0 01-9.812 35.322 68.957 68.957 0 01-17.661 19.624" stroke="#000"/><path data-name="Линия 8" stroke="#000" d="M51.021 366.703L3.925 413.799"/><path data-name="Линия 9" stroke="#000" d="M60.833 492.293v58.87"/><path data-name="Линия 10" stroke="#000" d="M86.343 95.9l-3.925 39.247"/><circle data-name="Эллипс 5" cx="23.685" cy="23.685" r="23.685" transform="translate(92.838)" stroke="#1d1d1b" stroke-linecap="round"/></g></g></svg>