<svg xmlns="http://www.w3.org/2000/svg" viewBox="0 0 436 621"><defs><clipPath id="a"><path data-name="Прямоугольник 57" transform="translate(1427 1250)" fill="#fff" stroke="#707070" d="M0 0h436v621H0z"/></clipPath></defs><g data-name="Группа масок 2" transform="translate(-1427 -1250)" clip-path="url(#a)"><g data-name="Слой 3" fill="#f27e00"><path data-name="Контур 33" d="M1773.122 1579.914c56.675-20.241 74.892-46.554 76.916-62.747 2.53-20.241-14.169-66.8-32.386-80.964-9.25-7.206-28.337-10.121-28.337-10.121s4.048-14.169 4.19-14.169c7.955-2.024 14.007-6.254 20.1-12.145 7.408-7.145 6.214-19.33 6.072-20.241a23.662 23.662 0 00-14.169-18.217c-5.08-2.793-8.643-4.048-17.508-4.534a21.6 21.6 0 00-14.715 3.684c-3.542 2.469-6.477 10.121-7.348 12.853l-11.031 29.41 16.557 9.189"/><path data-name="Контур 34" d="M1754.904 1397.746a117.2 117.2 0 00-145.735 0"/><path data-name="Контур 35" d="M1738.712 1422.035a141.687 141.687 0 00-36.434 16.193c-11.983 7.53-21.8 13.865-28.337 26.313a55.217 55.217 0 00-6.072 22.265"/><path data-name="Контур 36" d="M1769.276 1504.72c-9.554 2.55-29.43 12.57-40.381 27.669-4.048 5.506-10.323 8.825-10.444 21.172-.142 13.076 2.53 22 4.655 32.1 3.32 15.99 4.332 34.066 5.931 72.645 1.174 28.682.385 33.9-1.275 58.982a172.764 172.764 0 01-5.445 32.952"/><path data-name="Контур 37" d="M1653.699 1529.311a317.3 317.3 0 0036.434 121.446"/><path data-name="Контур 38" d="M1700.254 1749.939c-4.473-9.635-12.145-38.458-12.145-64.771a91.084 91.084 0 018.1-38.458"/><path data-name="Контур 39" d="M1473.554 1365.36c37.264 12.691 68.577 25.524 93.109 36.434 49.975 22.265 74.021 37.365 95.133 60.723a187.279 187.279 0 0110.12 12.145"/><path data-name="Контур 40" d="M1467.483 1379.529a168.567 168.567 0 0032.386 34.41 170.025 170.025 0 0058.7 30.362"/><path data-name="Контур 41" d="M1558.567 1436.203a192.494 192.494 0 0018.217 32.386c10.12 14.391 25.18 35.968 52.627 48.578a105.783 105.783 0 0026.313 8.1"/><path data-name="Контур 42" d="M1471.53 1369.408a32.952 32.952 0 00-8.1-14.169c-7.732-7.914-17.448-9.392-22.265-10.121a47.971 47.971 0 00-14.169 0"/><path data-name="Контур 43" d="M1700.254 1737.795a51.007 51.007 0 0118.217 8.1 52.242 52.242 0 0112.145 12.145 58.089 58.089 0 016.072 10.121"/><path data-name="Линия 11" d="M1771.098 1365.36l40.482 28.337"/></g><g data-name="Слой 2" fill="none" stroke="#000" stroke-miterlimit="10" stroke-width="3.398"><path data-name="Контур 44" d="M1783.808 1590.035c56.675-20.241 74.892-46.554 76.916-62.747 2.53-20.241-14.169-66.8-32.386-80.964-9.25-7.206-28.337-10.121-28.337-10.121s4.048-14.169 4.19-14.169c7.955-2.024 14.007-6.254 20.1-12.145 7.408-7.145 6.214-19.33 6.072-20.241a23.743 23.743 0 00-14.169-18.217c-5.081-2.793-8.663-4.048-17.529-4.534a21.516 21.516 0 00-14.695 3.684c-3.562 2.469-6.5 10.121-7.348 12.853l-11.031 29.41 16.537 9.189"/><path data-name="Контур 45" d="M1769.638 1403.817a117.2 117.2 0 00-145.735 0"/><path data-name="Контур 46" d="M1781.784 1490.854l46.554 28.338-42.506 52.627-18.217 8.1 10.12 16.193 10.121-12.145"/><path data-name="Контур 47" d="M1731.181 1432.155l-30.361-28.337h-44.53l-20.241 18.216-10.121-12.144"/><path data-name="Контур 48" d="M1747.375 1426.083a141.079 141.079 0 00-36.434 16.193c-12 7.53-21.8 13.865-28.337 26.313a54.874 54.874 0 00-6.072 22.265"/><path data-name="Контур 49" d="M1787.857 1500.975c-9.756 1.741-30.362 10.121-42.506 24.289-4.413 5.161-11.011 7.934-12.145 20.241-1.194 13.035.749 22.144 2.024 32.386 2.024 16.193 1.559 34.309 0 72.868-1.154 28.682-2.368 33.823-6.072 58.7a171.341 171.341 0 01-8.1 32.386"/><path data-name="Контур 50" d="M1662.363 1529.311a317.3 317.3 0 0036.434 121.446"/><path data-name="Контур 51" d="M1706.892 1749.939c-4.473-9.635-12.145-38.458-12.145-64.771a91.085 91.085 0 018.1-38.458"/><path data-name="Контур 52" d="M1488.289 1371.432c37.264 12.691 68.577 25.524 93.109 36.434 49.955 22.265 74.021 37.365 95.133 60.723 4.473 4.955 7.918 9.255 10.118 12.145"/><path data-name="Контур 53" d="M1482.217 1385.601a168 168 0 0032.386 34.41 169.78 169.78 0 0058.7 30.362"/><path data-name="Контур 54" d="M1573.302 1442.276a191.073 191.073 0 0018.217 32.386c10.121 14.391 25.16 35.968 52.627 48.578a105.535 105.535 0 0026.313 8.1"/><path data-name="Контур 55" d="M1486.269 1375.481a32.953 32.953 0 00-8.1-14.173c-7.752-7.914-17.448-9.392-22.265-10.121a47.95 47.95 0 00-14.169 0"/><path data-name="Контур 56" d="M1714.989 1743.867a51.007 51.007 0 0118.217 8.1 52.626 52.626 0 0112.145 12.145 59.4 59.4 0 016.072 10.121"/><path data-name="Линия 12" d="M1698.796 1758.036l46.554 16.193"/><path data-name="Линия 13" d="M1441.735 1355.239l32.386 30.362"/><path data-name="Линия 14" d="M1785.833 1371.432l40.482 28.337"/></g></g></svg>