<svg xmlns="http://www.w3.org/2000/svg" viewBox="0 0 485.2 485.2"><path d="M242.6 0C108.6 0 0 108.6 0 242.6s108.6 242.6 242.6 242.6 242.6-108.6 242.6-242.6S376.6 0 242.6 0zm128.1 354l-19.4 19.4c-3.5 3.5-13.6 5.6-13.9 5.6-61.5.5-120.6-23.6-164.1-67.1-43.6-43.6-67.8-103-67.1-164.7 0 0 2.2-9.9 5.7-13.3l19.4-19.4c7.1-7.1 20.8-10.4 30.3-7.2l4.1 1.4c9.5 3.2 19.6 13.7 22.2 23.5l9.8 35.9c2.6 9.7-.9 23.6-8 30.7l-13 13c12.7 47.1 49.7 84.1 96.9 96.9l13-13c7.1-7.1 21-10.7 30.7-8.1l35.9 9.8c9.7 2.7 20.3 12.6 23.5 22.2l1.4 4.1c2.9 9.6-.3 23.2-7.4 30.3z" fill="#fff"/></svg>