<svg id="Слой_2" data-name="Слой 2" xmlns="http://www.w3.org/2000/svg" viewBox="0 0 229.45 365.72"><defs><style>.cls-1{fill:#fff;}.cls-2{fill:none;stroke:#000;stroke-miterlimit:10;}</style></defs><path class="cls-1" d="M303,123.4A114.73,114.73,0,1,0,85.42,174.34c58,121,80,158.85,97,197.18.77,1.74,3,2.07,4.7,2.36,1.74,0,3.83-.83,4.62-2.36,19.12-37.32,40.74-75.1,98.77-196.11h0A114.18,114.18,0,0,0,303,123.4ZM188.23,176.93a53.54,53.54,0,1,1,53.54-53.53A53.54,53.54,0,0,1,188.23,176.93Z" transform="translate(-73.51 -8.67)"/><path class="cls-2" d="M187.16,373.89h0Z" transform="translate(-73.51 -8.67)"/></svg>