<?xml version="1.0" encoding="utf-8"?>
<!-- Generator: Adobe Illustrator 24.2.1, SVG Export Plug-In . SVG Version: 6.00 Build 0)  -->
<svg version="1.1" id="Слой_1" xmlns="http://www.w3.org/2000/svg" xmlns:xlink="http://www.w3.org/1999/xlink" x="0px" y="0px"
	 viewBox="0 0 512 512" style="enable-background:new 0 0 512 512;" xml:space="preserve">
<style type="text/css">
	.st0{fill:#FFFFFF;}
</style>
<g transform="translate(0.000000,512.000000) scale(0.100000,-0.100000)">
	<path class="st0" d="M2285,4898c-311-35-683-165-955-333c-220-137-472-361-622-555c-256-331-417-712-480-1135c-20-136-17-512,5-655
		C336,1555,704,975,1260,604c287-191,623-320,966-371c164-24,504-24,668,0c411,61,815,237,1136,494c459,368,764,897,857,1485
		c25,159,25,537,0,696c-83,524-329,995-708,1356c-370,352-861,581-1361,635C2704,4912,2399,4911,2285,4898z M4070,3701
		c0-5-18-24-39-43c-78-66-641-585-676-622c-18-19-322-302-567-527c-117-108-167-139-226-139c-78,0-81,2-496,384
		c-83,76-191,178-241,225c-161,155-647,603-736,679c-21,19-39,38-39,43s601,9,1510,9S4070,3706,4070,3701z M1380,3158
		c151-138,331-305,400-370l124-118l-39-39c-22-21-218-202-435-401c-217-200-431-398-475-440c-44-43-99-94-122-115l-43-37v971
		c0,994,0,990,38,1033c14,16,24,8,146-107C1046,3467,1229,3297,1380,3158z M4312,3609c17-32,18-100,18-1003v-968l-64,58
		c-146,134-906,843-971,906l-70,69l96,92c52,51,239,223,414,382c176,160,369,338,430,397c60,59,115,106,120,105
		C4291,3645,4303,3628,4312,3609z M2195,2409c201-188,230-204,370-204c143,0,171,15,367,199c87,81,162,146,167,144
		c6-1,79-69,163-149s284-266,443-413c427-394,560-520,560-531c0-5-16-18-35-28c-33-16-129-17-1680-15c-1632,3-1645,3-1677,23l-32,20
		l157,147c86,80,310,288,497,461c187,174,383,356,435,406c52,49,97,90,100,90S2107,2492,2195,2409z"/>
</g>
</svg>
