<svg xmlns="http://www.w3.org/2000/svg" xmlns:xlink="http://www.w3.org/1999/xlink" width="100%" height="100%" viewBox="0 0 436 621">
  <defs>
    <clipPath id="clip-path">
      <rect id="Прямоугольник_57" data-name="Прямоугольник 57" width="436" height="621" transform="translate(1427 1250)" fill="#fff" stroke="#707070" stroke-width="1"/>
    </clipPath>
  </defs>
  <g id="Группа_масок_2" data-name="Группа масок 2" transform="translate(-1427 -1250)" clip-path="url(#clip-path)">
    <g id="спортсмен-2" transform="translate(1427 1344.593)">
      <g id="Слой_3" data-name="Слой 3" transform="translate(0 0)">
        <path id="Контур_33" data-name="Контур 33" d="M333.735,382.447c56.675-20.241,74.892-46.554,76.916-62.747,2.53-20.241-14.169-66.8-32.386-80.964-9.25-7.206-28.337-10.121-28.337-10.121s4.048-14.169,4.19-14.169c7.955-2.024,14.007-6.254,20.1-12.145,7.408-7.145,6.214-19.33,6.072-20.241a23.662,23.662,0,0,0-14.169-18.217c-5.08-2.793-8.643-4.048-17.508-4.534a21.6,21.6,0,0,0-14.715,3.684c-3.542,2.469-6.477,10.121-7.348,12.853l-11.031,29.41,16.557,9.189" transform="translate(12.387 -147.126)" fill="#f27e00"/>
        <path id="Контур_34" data-name="Контур 34" d="M338.933,197.756a117.2,117.2,0,0,0-145.735,0" transform="translate(-11.029 -144.603)" fill="#f27e00"/>
        <path id="Контур_35" data-name="Контур 35" d="M313.309,214.06a141.687,141.687,0,0,0-36.434,16.193c-11.983,7.53-21.8,13.865-28.337,26.313a55.217,55.217,0,0,0-6.072,22.265" transform="translate(-1.597 -136.618)" fill="#f27e00"/>
        <path id="Контур_36" data-name="Контур 36" d="M335.747,283.46c-9.554,2.55-29.43,12.57-40.381,27.669-4.048,5.506-10.323,8.825-10.444,21.172-.142,13.076,2.53,22,4.655,32.1,3.32,15.99,4.332,34.066,5.931,72.645,1.174,28.682.385,33.9-1.275,58.982a172.764,172.764,0,0,1-5.445,32.952" transform="translate(6.529 -123.333)" fill="#f27e00"/>
        <path id="Контур_37" data-name="Контур 37" d="M230.573,304.1a317.3,317.3,0,0,0,36.434,121.446" transform="translate(-3.874 -119.382)" fill="#f27e00"/>
        <path id="Контур_38" data-name="Контур 38" d="M271.6,505.866c-4.473-9.635-12.145-38.458-12.145-64.771a91.084,91.084,0,0,1,8.1-38.458" transform="translate(1.654 -100.52)" fill="#f27e00"/>
        <path id="Контур_39" data-name="Контур 39" d="M79.372,166.491c37.264,12.691,68.577,25.524,93.109,36.434,49.975,22.265,74.021,37.365,95.133,60.723,4.493,4.959,7.914,9.25,10.12,12.145" transform="translate(-32.818 -145.724)" fill="#f27e00"/>
        <path id="Контур_40" data-name="Контур 40" d="M74.276,178.384a168.567,168.567,0,0,0,32.386,34.41,170.025,170.025,0,0,0,58.7,30.362" transform="translate(-33.793 -143.448)" fill="#f27e00"/>
        <path id="Контур_41" data-name="Контур 41" d="M150.726,225.952a192.494,192.494,0,0,0,18.217,32.386c10.12,14.391,25.18,35.968,52.627,48.578a105.783,105.783,0,0,0,26.313,8.1" transform="translate(-19.159 -134.342)" fill="#f27e00"/>
        <path id="Контур_42" data-name="Контур 42" d="M84.828,173.876a32.952,32.952,0,0,0-8.1-14.169c-7.732-7.914-17.448-9.392-22.265-10.121a47.971,47.971,0,0,0-14.169,0" transform="translate(-40.298 -149.061)" fill="#f27e00"/>
        <path id="Контур_43" data-name="Контур 43" d="M269.648,479.087a51.007,51.007,0,0,1,18.217,8.1,52.242,52.242,0,0,1,12.145,12.145,58.089,58.089,0,0,1,6.072,10.121" transform="translate(3.606 -85.885)" fill="#f27e00"/>
        <line id="Линия_11" data-name="Линия 11" x2="40.482" y2="28.337" transform="translate(344.098 20.767)" fill="#f27e00"/>
      </g>
      <g id="Слой_2" data-name="Слой 2" transform="translate(14.735 6.072)">
        <path id="Контур_44" data-name="Контур 44" d="M342.705,390.942c56.675-20.241,74.892-46.554,76.916-62.747,2.53-20.241-14.169-66.8-32.386-80.964-9.25-7.206-28.337-10.121-28.337-10.121s4.048-14.169,4.19-14.169c7.955-2.024,14.007-6.254,20.1-12.145,7.408-7.145,6.214-19.33,6.072-20.241a23.743,23.743,0,0,0-14.169-18.217c-5.081-2.793-8.663-4.048-17.529-4.534a21.516,21.516,0,0,0-14.695,3.684c-3.562,2.469-6.5,10.121-7.348,12.853l-11.031,29.41,16.537,9.189" transform="translate(-0.632 -151.572)" fill="none" stroke="#000" stroke-miterlimit="10" stroke-width="3.398"/>
        <path id="Контур_45" data-name="Контур 45" d="M351.3,202.852a117.2,117.2,0,0,0-145.735,0" transform="translate(-23.397 -149.7)" fill="none" stroke="#000" stroke-miterlimit="10" stroke-width="3.398"/>
        <path id="Контур_46" data-name="Контур 46" d="M300.058,122.762,346.612,151.1l-42.506,52.627-18.217,8.1,10.12,16.193,10.121-12.145" transform="translate(39.991 17.427)" fill="none" stroke="#000" stroke-miterlimit="10" stroke-width="3.398"/>
        <path id="Контур_47" data-name="Контур 47" d="M272.22,78.047,241.859,49.71h-44.53L177.088,67.926,166.967,55.782" transform="translate(17.226 3.443)" fill="none" stroke="#000" stroke-miterlimit="10" stroke-width="3.398"/>
        <path id="Контур_48" data-name="Контур 48" d="M320.581,217.458a141.079,141.079,0,0,0-36.434,16.193c-12,7.53-21.8,13.865-28.337,26.313a54.874,54.874,0,0,0-6.072,22.265" transform="translate(-14.941 -142.04)" fill="none" stroke="#000" stroke-miterlimit="10" stroke-width="3.398"/>
        <path id="Контур_49" data-name="Контур 49" d="M353.908,280.317c-9.756,1.741-30.362,10.121-42.506,24.289-4.413,5.161-11.011,7.934-12.145,20.241-1.194,13.035.749,22.144,2.024,32.386,2.024,16.193,1.559,34.309,0,72.868-1.154,28.682-2.368,33.823-6.072,58.7a171.341,171.341,0,0,1-8.1,32.386" transform="translate(-7.786 -130.007)" fill="none" stroke="#000" stroke-miterlimit="10" stroke-width="3.398"/>
        <path id="Контур_50" data-name="Контур 50" d="M237.845,304.1a317.3,317.3,0,0,0,36.434,121.446" transform="translate(-17.217 -125.454)" fill="none" stroke="#000" stroke-miterlimit="10" stroke-width="3.398"/>
        <path id="Контур_51" data-name="Контур 51" d="M277.172,505.866c-4.473-9.635-12.145-38.458-12.145-64.771a91.085,91.085,0,0,1,8.1-38.458" transform="translate(-12.015 -106.592)" fill="none" stroke="#000" stroke-miterlimit="10" stroke-width="3.398"/>
        <path id="Контур_52" data-name="Контур 52" d="M91.74,171.588c37.264,12.691,68.577,25.524,93.109,36.434,49.955,22.265,74.021,37.365,95.133,60.723C284.455,273.7,287.9,278,290.1,280.89" transform="translate(-45.186 -150.821)" fill="none" stroke="#000" stroke-miterlimit="10" stroke-width="3.398"/>
        <path id="Контур_53" data-name="Контур 53" d="M86.643,183.48a168,168,0,0,0,32.386,34.41,169.78,169.78,0,0,0,58.7,30.362" transform="translate(-46.161 -148.544)" fill="none" stroke="#000" stroke-miterlimit="10" stroke-width="3.398"/>
        <path id="Контур_54" data-name="Контур 54" d="M163.094,231.049a191.073,191.073,0,0,0,18.217,32.386c10.121,14.391,25.16,35.968,52.627,48.578a105.535,105.535,0,0,0,26.313,8.1" transform="translate(-31.527 -139.438)" fill="none" stroke="#000" stroke-miterlimit="10" stroke-width="3.398"/>
        <path id="Контур_55" data-name="Контур 55" d="M97.2,178.973A32.953,32.953,0,0,0,89.1,164.8c-7.752-7.914-17.448-9.392-22.265-10.121a47.95,47.95,0,0,0-14.169,0" transform="translate(-52.666 -154.157)" fill="none" stroke="#000" stroke-miterlimit="10" stroke-width="3.398"/>
        <path id="Контур_56" data-name="Контур 56" d="M282.016,484.184a51.007,51.007,0,0,1,18.217,8.1,52.626,52.626,0,0,1,12.145,12.145,59.4,59.4,0,0,1,6.072,10.121" transform="translate(-8.762 -90.982)" fill="none" stroke="#000" stroke-miterlimit="10" stroke-width="3.398"/>
        <line id="Линия_12" data-name="Линия 12" x2="46.554" y2="16.193" transform="translate(257.061 407.371)" fill="none" stroke="#000" stroke-miterlimit="10" stroke-width="3.398"/>
        <line id="Линия_13" data-name="Линия 13" x2="32.386" y2="30.362" transform="translate(0 4.574)" fill="none" stroke="#000" stroke-miterlimit="10" stroke-width="3.398"/>
        <line id="Линия_14" data-name="Линия 14" x2="40.482" y2="28.337" transform="translate(344.098 20.767)" fill="none" stroke="#000" stroke-miterlimit="10" stroke-width="3.398"/>
      </g>
    </g>
  </g>
</svg>
