<svg xmlns="http://www.w3.org/2000/svg" xmlns:xlink="http://www.w3.org/1999/xlink" width="100%" height="100%" viewBox="0 0 433 568">
  <defs>
    <clipPath id="clip-path">
      <rect id="Прямоугольник_45" data-name="Прямоугольник 45" width="433" height="568" transform="translate(1520 1258)" fill="#fff" stroke="#707070" stroke-width="1"/>
    </clipPath>
  </defs>
  <g id="Группа_масок_1" data-name="Группа масок 1" transform="translate(-1520 -1258)" clip-path="url(#clip-path)">
    <g id="спортсмен-1" transform="translate(1576.065 1258)">
      <g id="Слой_2" data-name="Слой 2" transform="translate(10.95 0)">
        <path id="Контур_6" data-name="Контур 6" d="M183.964,127.271l-7.849,11.774c-1.962,7.2,0,17.661,0,17.661l17.661-9.812c9.812-5.887,23.548-9.812,74.569-17.661,43.172-6.652,52.159-12.049,68.682-5.887l23.548,19.623c-.687,7.653-9.812,7.849-19.623,7.849L333.1,131.2l-64.757,15.7L211.437,188.1" transform="translate(-50.525 -11.748)" fill="#01a1e0"/>
        <path id="Контур_7" data-name="Контур 7" d="M275.127,139.736h7.849" transform="translate(7.45 -0.665)" fill="#01a1e0"/>
        <path id="Контур_8" data-name="Контур 8" d="M204.544,135.515,173.146,110s-11.185-1.079-17.661,1.962a21.056,21.056,0,0,0-9.812,7.849,33.536,33.536,0,0,0-5.887,17.661c0,3.356,2.688,14.227,7.849,17.661,5.887,3.925,9.812,3.925,15.7,1.962l-1.962,15.7" transform="translate(-71.104 -18.03)" fill="#01a1e0"/>
        <path id="Контур_9" data-name="Контур 9" d="M201.031,216.9c-5.141.589-15.208,1.374-23.548-1.962-29.435-11.774-70.429-26.825-78.494-51.021-3.925-11.774,17.229-27.963,21.586-31.4,14.188-11.185,31.4-23.548,31.4-23.548L150.01,95.236c5.887-3.925,11.774-3.925,17.661-3.925l-3.925,23.548-34.773,39.993-4.474,5.141" transform="translate(-95.064 -28.772)" fill="#01a1e0"/>
        <path id="Контур_10" data-name="Контур 10" d="M201.869,152.153c8.693,2.453,21.959,7.261,29.435,17.661a84.38,84.38,0,0,1,13.736,27.473c2.885,9.439,5.887,21.586,9.812,37.285" transform="translate(-35.07 6.542)" fill="#01a1e0"/>
        <path id="Контур_11" data-name="Контур 11" d="M148.478,164.57a146.531,146.531,0,0,0,27.473,25.51c22.214,15.7,33.36,21.586,33.36,21.586,7.378,3.925,12.382,5.887,15.7,11.774,3.925,7.064,2.944,15.012,1.962,21.586-1.747,11.774-5.063,11.774-7.849,23.548-1.3,5.534-4.592,20.369,1.962,35.322a45.643,45.643,0,0,0,5.887,9.812" transform="translate(-66.059 13.749)" fill="#01a1e0"/>
        <path id="Контур_12" data-name="Контур 12" d="M280.676,201.82l11.774,35.322c.294,4.2,2.08,9.184,1.962,11.774-1.119,23.764-1.962,39.247-1.962,47.1-.216,52.748-14.306,77.827-23.548,92.23-8.418,13.108-21.311,23.784-47.1,45.134-11.166,9.243-27.061,21.213-58.87,45.134l-15.7,11.774" transform="translate(-66.78 35.369)" fill="#01a1e0"/>
        <path id="Контур_13" data-name="Контур 13" d="M248.314,304.877a333.741,333.741,0,0,1-33.36,5.887,273.592,273.592,0,0,1-56.908,1.962,251.3,251.3,0,0,1-29.435-3.925" transform="translate(-77.59 95.186)" fill="#01a1e0"/>
        <path id="Контур_14" data-name="Контур 14" d="M247.316,303.636c-6.162,4.788-14.305,11.382-23.548,19.623-5.887,5.279-10.636,9.812-49.059,51.021a145.216,145.216,0,0,0-23.548,31.4c-1.786,3.277-3.1,6.044-3.925,7.849" transform="translate(-66.78 94.465)" fill="#01a1e0"/>
        <path id="Контур_15" data-name="Контур 15" d="M247.793,294.984A152.015,152.015,0,0,0,220.32,289.1c-18.014-2.139-31.81-.471-51.021,1.962a409.831,409.831,0,0,0-43.172,7.849" transform="translate(-79.032 85.456)" fill="#01a1e0"/>
        <path id="Контур_16" data-name="Контур 16" d="M157.161,303.636a76.531,76.531,0,0,1-60.833,25.51" transform="translate(-96.328 94.465)" fill="#01a1e0"/>
        <path id="Контур_17" data-name="Контур 17" d="M164.776,371.927a70.055,70.055,0,0,1-9.812,35.322A69.25,69.25,0,0,1,137.3,426.873" transform="translate(-72.545 134.103)" fill="#01a1e0"/>
        <path id="Контур_18" data-name="Контур 18" d="M134.82,400.485" transform="translate(-73.987 150.678)" fill="#01a1e0"/>
        <path id="Контур_19" data-name="Контур 19" d="M134.82,363.235" transform="translate(-73.987 129.058)" fill="#01a1e0"/>
        <line id="Линия_6" data-name="Линия 6" x1="3.925" y2="39.247" transform="translate(82.418 95.9)" fill="#01a1e0"/>
        <circle id="Эллипс_4" data-name="Эллипс 4" cx="23.685" cy="23.685" r="23.685" transform="translate(92.839)" fill="#01a1e0"/>
      </g>
      <g id="Слой_1" data-name="Слой 1" transform="translate(0 4.827)">
        <path id="Контур_20" data-name="Контур 20" d="M177.02,130.326,169.17,142.1c-1.864,7.2,0,17.661,0,17.661l17.661-9.812c9.812-5.887,23.548-9.812,74.569-17.661,43.172-6.652,52.159-12.049,68.682-5.887l23.548,19.623c-.687,7.653-9.812,7.849-19.623,7.849l-7.849-19.623-64.757,15.7-56.908,41.209" transform="translate(-43.58 -14.803)" fill="none" stroke="#000" stroke-miterlimit="10" stroke-width="2.483"/>
        <path id="Контур_21" data-name="Контур 21" d="M268.2,142.791h7.849" transform="translate(14.379 -3.72)" fill="none" stroke="#000" stroke-miterlimit="10" stroke-width="2.483"/>
        <path id="Контур_22" data-name="Контур 22" d="M197.615,138.572l-31.4-25.511s-11.185-1.1-17.661,1.962a21.056,21.056,0,0,0-9.812,7.849,33.536,33.536,0,0,0-5.887,17.661c0,3.356,2.688,14.227,7.849,17.661,5.887,3.925,9.812,3.925,15.7,1.962l-1.962,15.7" transform="translate(-64.176 -21.087)" fill="none" stroke="#000" stroke-miterlimit="10" stroke-width="2.483"/>
        <path id="Контур_23" data-name="Контур 23" d="M194.1,219.956c-5.141.589-15.208,1.374-23.548-1.962-29.435-11.774-70.429-26.825-78.494-51.021-3.925-11.774,17.229-27.963,21.586-31.4,14.188-11.185,31.4-23.548,31.4-23.548l-1.962-13.736c5.887-3.925,11.774-3.925,17.661-3.925l-3.925,23.548-34.773,39.993-4.474,5.141" transform="translate(-88.136 -31.826)" fill="none" stroke="#000" stroke-miterlimit="10" stroke-width="2.483"/>
        <line id="Линия_7" data-name="Линия 7" x2="39.247" y2="7.849" transform="translate(33.36 125.335)" fill="none" stroke="#000" stroke-miterlimit="10" stroke-width="2.483"/>
        <path id="Контур_24" data-name="Контур 24" d="M194.941,155.208c8.693,2.453,21.959,7.261,29.435,17.661a84.382,84.382,0,0,1,13.736,27.473c2.885,9.439,5.887,21.586,9.812,37.285" transform="translate(-28.141 3.487)" fill="none" stroke="#000" stroke-miterlimit="10" stroke-width="2.483"/>
        <path id="Контур_25" data-name="Контур 25" d="M141.549,167.624a146.532,146.532,0,0,0,27.473,25.51c22.214,15.7,33.36,21.586,33.36,21.586,7.378,3.925,12.382,5.887,15.7,11.774,3.925,7.064,2.943,15.012,1.962,21.586-1.746,11.774-5.063,11.774-7.849,23.548-1.3,5.534-4.592,20.369,1.962,35.322a46.153,46.153,0,0,0,5.887,9.812" transform="translate(-59.131 10.694)" fill="none" stroke="#000" stroke-miterlimit="10" stroke-width="2.483"/>
        <path id="Контур_26" data-name="Контур 26" d="M273.747,204.874,285.521,240.2c.294,4.2,2.08,9.184,1.962,11.774-1.119,23.764-1.962,39.247-1.962,47.1-.216,52.748-14.306,77.827-23.548,92.23-8.418,13.108-21.311,23.784-47.1,45.134-11.166,9.243-27.061,21.213-58.87,45.134-6.633,5-12.108,9.086-15.7,11.774" transform="translate(-59.852 32.315)" fill="none" stroke="#000" stroke-miterlimit="10" stroke-width="2.483"/>
        <path id="Контур_27" data-name="Контур 27" d="M241.386,307.932a333.742,333.742,0,0,1-33.36,5.887,273.588,273.588,0,0,1-56.908,1.962,251.311,251.311,0,0,1-29.435-3.925" transform="translate(-70.662 92.131)" fill="none" stroke="#000" stroke-miterlimit="10" stroke-width="2.483"/>
        <path id="Контур_28" data-name="Контур 28" d="M195.015,257.024a501.281,501.281,0,0,0,1.962,60.833c1.02,10.97,2.355,21.448,3.925,31.4" transform="translate(-28.216 62.583)" fill="none" stroke="#000" stroke-miterlimit="10" stroke-width="2.483"/>
        <path id="Контур_29" data-name="Контур 29" d="M240.387,306.69c-6.162,4.788-14.305,11.382-23.548,19.623-5.887,5.279-10.636,9.812-49.059,51.021a145.216,145.216,0,0,0-23.548,31.4c-1.786,3.277-3.1,6.044-3.925,7.849" transform="translate(-59.852 91.411)" fill="none" stroke="#000" stroke-miterlimit="10" stroke-width="2.483"/>
        <path id="Контур_30" data-name="Контур 30" d="M240.865,298.039a152.013,152.013,0,0,0-27.473-5.887c-18.014-2.139-31.81-.471-51.021,1.962a409.851,409.851,0,0,0-43.172,7.849" transform="translate(-72.103 82.401)" fill="none" stroke="#000" stroke-miterlimit="10" stroke-width="2.483"/>
        <path id="Контур_31" data-name="Контур 31" d="M150.232,306.69A76.531,76.531,0,0,1,89.4,332.2" transform="translate(-89.4 91.411)" fill="none" stroke="#000" stroke-miterlimit="10" stroke-width="2.483"/>
        <path id="Контур_32" data-name="Контур 32" d="M157.847,374.982a70.056,70.056,0,0,1-9.812,35.322,68.957,68.957,0,0,1-17.661,19.624" transform="translate(-65.617 131.048)" fill="none" stroke="#000" stroke-miterlimit="10" stroke-width="2.483"/>
        <line id="Линия_8" data-name="Линия 8" x1="47.096" y2="47.096" transform="translate(3.925 366.703)" fill="none" stroke="#000" stroke-miterlimit="10" stroke-width="2.483"/>
        <line id="Линия_9" data-name="Линия 9" y2="58.87" transform="translate(60.833 492.293)" fill="none" stroke="#000" stroke-miterlimit="10" stroke-width="2.483"/>
        <line id="Линия_10" data-name="Линия 10" x1="3.925" y2="39.247" transform="translate(82.418 95.9)" fill="none" stroke="#000" stroke-miterlimit="10" stroke-width="2.483"/>
        <circle id="Эллипс_5" data-name="Эллипс 5" cx="23.685" cy="23.685" r="23.685" transform="translate(92.838)" fill="none" stroke="#1d1d1b" stroke-linecap="round" stroke-miterlimit="10" stroke-width="2.483"/>
      </g>
    </g>
  </g>
</svg>
